<svg xmlns="http://www.w3.org/2000/svg" width="50" height="50" xml:space="preserve"><circle fill="#FFF" cx="25" cy="25" r="25"/><g fill="#DD0B22"><path d="M19.527 22.297c1.551.031 2.971.049 4.461.13.289.026.576.057.857.092l.213.027.211.042.422.086c.279.064.557.11.832.196l.824.259c.277.079.543.196.811.309.271.115.533.22.813.346.568.258 1.16.598 1.717 1.006a8.61 8.61 0 0 1 1.426 1.394c.111.121.193.26.291.39.09.132.195.264.266.396.078.132.156.266.236.399l.195.324c.236.456.533.976.818 1.528.279.563.57 1.181.742 1.916.043.185.086.368.102.559.021.189.047.378.039.574l-.004.292c0 .097-.018.191-.025.287l-.035.286c-.014.094-.039.186-.059.279a6.371 6.371 0 0 1-.865 2.043c-.09.132-.291.365-.438.576-.154.205-.262.388-.141.438a7.378 7.378 0 0 1-1.695 1.274 6.339 6.339 0 0 1-.977.434l-.125.046-.115.032-.232.065-.461.13c-1.23.321-2.459.511-3.686.666a8.9 8.9 0 0 1-.785.025c-.264-.003-.527-.033-.791-.053l-.393-.033-.391-.046c-.26-.03-.52-.044-.775-.06a12.855 12.855 0 0 1-.623-.043l-.311-.031c-.105-.016-.215-.037-.322-.056-.107-.021-.217-.04-.322-.063l-.314-.087c-.105-.03-.209-.057-.313-.092l-.305-.111c-.809-.304-1.557-.716-2.271-1.187a5.04 5.04 0 0 1-.455-.219c-.17-.087-.33-.182-.398-.264-.102-.115-.201-.229-.303-.342l-.279-.36c-.098-.114-.18-.242-.264-.368-.08-.127-.176-.243-.246-.377-.072-.132-.146-.264-.219-.395-.074-.131-.125-.275-.189-.411l-.092-.208c-.029-.069-.047-.144-.072-.215l-.137-.435c-.031-.147-.059-.297-.088-.446l-.043-.225c-.008-.076-.012-.151-.018-.228l-.029-.459c-.002-.153.014-.303.021-.457.008-.308.082-.609.143-.917.035-.152.092-.3.143-.45l.078-.226c.031-.073.068-.143.102-.215l.17-.325c.055-.107.125-.197.186-.293l.189-.279c.064-.089.137-.168.205-.251l.211-.244c.072-.077.15-.148.229-.222l.242-.22c.084-.067.172-.132.264-.199 0-.134.184-.259.375-.422.07-.046.186-.117.33-.2.146-.075.324-.164.523-.26.199-.085.418-.182.646-.269.227-.083.465-.173.697-.244.938-.299 1.809-.49 1.973-.479.039.005-.311.146-.871.375-.559.229-1.328.547-2.08.957-.754.404-1.48.927-1.945 1.418-.469.487-.688.883-.646.871.043-.021.225-.292.549-.617.041-.042.08-.086.123-.129l.141-.125c.098-.085.197-.179.303-.268.221-.168.453-.354.701-.507.244-.168.5-.303.74-.442.244-.124.475-.25.684-.34.416-.196.727-.313.818-.345-.887.442-1.678.91-2.326 1.433-.65.52-1.152 1.099-1.473 1.682a4.93 4.93 0 0 0-.543 1.631c-.016.247-.041.473-.037.681.018.209.025.4.049.571l.098.462c.033.137.088.253.123.358.066.211.154.354.209.454.111.2.135.218.094.106-.037-.113-.166-.351-.26-.711-.068-.176-.086-.388-.133-.617-.027-.115-.02-.237-.029-.364-.002-.126-.025-.259-.01-.394.02-.542.145-1.143.395-1.715a5.111 5.111 0 0 1 1.066-1.53c.143-.123.311-.243.482-.396l.285-.218c.098-.078.201-.158.314-.231a8.751 8.751 0 0 1 1.658-.914c-.379.202-.926.583-1.387.964-.467.376-.82.775-.969.903-.17.153-.291.31-.404.434-.105.133-.184.255-.256.36-.078.102-.119.21-.17.302-.047.095-.1.177-.135.27-.068.188-.168.362-.25.624l-.076.204c-.027.073-.041.156-.066.242-.023.086-.051.179-.078.279l-.053.332c-.068.389-.037.857.08 1.33.115.475.373.932.682 1.33.627.805 1.535 1.296 2.129 1.575l-.303-.076c-.111-.032-.23-.078-.361-.124-.064-.024-.135-.046-.201-.076a9.06 9.06 0 0 1-.201-.097 2.827 2.827 0 0 1-.416-.229c-.135-.088-.283-.174-.402-.285-.121-.109-.26-.209-.357-.335-.102-.124-.217-.238-.293-.368a5.508 5.508 0 0 1-.205-.376c.113.269.219.512.367.703.127.204.287.355.43.495.068.072.148.129.225.184.078.055.152.106.227.155.148.098.311.165.461.242.314.14.637.253 1.014.39.188.07.396.132.617.219.229.07.473.168.756.253.209.07.467.094.738.121.254.063.482.135.816.19 1.021.125 1.992.102 2.943.032l.711-.061.709-.094c.238-.023.475-.071.713-.11.238-.044.484-.065.725-.125-.162.052-.295-.05-.467-.039-.215.01-.424.026-.627.049s-.408.027-.607.049c-.201.016-.398.049-.598.062-.199.014-.398.031-.6.05-.1.008-.199.021-.301.027l-.305.014-.621.024a17.744 17.744 0 0 1-.643-.018 5.71 5.71 0 0 1-.666-.055c-.172-.033-.383-.016-.6.004a2.644 2.644 0 0 1-.584-.001c-.703-.128-1.273-.455-1.82-.797.607.216 1.281.416 1.979.525l.26.037.131.019.145.012.576.051c.191.021.385.027.574.034l.566.02c.311-.012.682-.14.918-.204-.34-.011-.68-.002-1.021-.021l-.514-.028a7.452 7.452 0 0 1-.516-.036l-.457-.028-.236-.011-.213-.02c-.143-.013-.289-.02-.434-.046-.146-.025-.297-.034-.443-.071a6.772 6.772 0 0 1-1.734-.558c-1.076-.516-1.865-1.393-1.941-2.123a17.456 17.456 0 0 1-.098-.143.181.181 0 0 0-.006-.085c-.031-.132-.068-.277-.09-.427 0-.154-.002-.31.029-.455-.012 0 .016.183.025.367 0 .094.029.181.043.249l.023.112c.221.436.5.835.857 1.209.359.373.795.718 1.291 1.011a6.753 6.753 0 0 0 1.629.683c.141.047.289.068.434.102.145.036.291.05.436.069.074.008.141.02.221.026l.248.015.492.024c.289.001.672.044 1.057.104.383.042.771.076 1.061.045.211-.027.424-.051.637-.072l.32-.031.318-.045.637-.079c.209-.037.42-.072.631-.104.105-.017.213-.029.316-.048l.311-.065c.205-.044.416-.078.621-.123.203-.054.406-.105.609-.154l.154-.036c.053-.012.104-.023.141-.037l.246-.072a4.951 4.951 0 0 0 1.682-1.079 4.7 4.7 0 0 0 1.145-1.683c.23-.625.289-1.285.102-1.972-.182-.695-.547-1.418-.93-2.141l-.291-.554-.146-.285-.133-.269-.129-.268c-.047-.086-.1-.167-.15-.252l-.152-.252-.174-.238a6.166 6.166 0 0 0-1.766-1.613 9.65 9.65 0 0 0-1.096-.559l-.564-.257c-.189-.083-.387-.143-.582-.216l-.586-.21c-.197-.069-.398-.115-.598-.174l-.602-.169c-.201-.057-.404-.092-.607-.139l-.459-.04.189.094a66.778 66.778 0 0 0-.424-.116 23.62 23.62 0 0 1-1.256-.104 13.26 13.26 0 0 1-1.238-.16c-.338-.092.596.004.857-.082l-.375-.039.074-.106c-.146.021-.23-.045-.332-.086 1.848.02 3.752.142 5.633.64-.088-.098-.275-.175-.475-.238a5.56 5.56 0 0 0-.293-.086c-.094-.022-.18-.037-.244-.055-.32-.039-.637-.076-.947-.122-.309-.042-.607-.068-.895-.126-1.598-.134-3.24-.396-4.758-.421a14.661 14.661 0 0 1-.83-.122c-.341-.072.352-.264.92-.235zM31.596 35.77c.385-.265.758-.55 1.105-.902.1-.14.209-.274.293-.424.057-.091.119-.184.16-.29.043-.104.082-.214.119-.326.197-.414.338-.857.398-1.322.066-.466.006-.946-.1-1.419a4.77 4.77 0 0 1-.049 1.466 5.973 5.973 0 0 1-.529 1.458c.295-.651.473-1.325.438-2.001-.021-.678-.234-1.356-.504-2.016-.266-.658-.59-1.307-.869-1.946-.264-.666-.629-1.347-1.143-1.938-.084-.083-.16-.174-.25-.252l-.27-.233c-.178-.164-.383-.288-.578-.43-.199-.137-.416-.245-.627-.368a14.388 14.388 0 0 0-.66-.293 27.57 27.57 0 0 0-.932-.313c-.078-.024-.154-.051-.232-.071l-.236-.052-.473-.1.717.237.691.299c.229.102.457.192.684.316l.336.175.324.205a6.265 6.265 0 0 1 2.047 2.15l.092.157c.031.053.055.109.082.164l.158.328c.105.216.213.436.324.65.223.431.441.861.641 1.294.193.434.363.875.465 1.31.088.436.115.872.057 1.288-.137.835-.553 1.61-1.127 2.243-.137.163-.297.307-.447.454-.166.135-.324.275-.5.393-.342.24-.703.453-1.074.591-.34.135-.814.233-1.242.351-.221.048-.445.083-.668.126l-.332.063-.342.041c-.898.133-1.824.157-2.75.161 1.201.113 2.395.089 3.568-.08l.441-.065c.148-.019.289-.062.436-.091.283-.067.6-.124.844-.207a5.417 5.417 0 0 0 1.514-.781zm-.582.654-.309.183c-.104.056-.211.105-.316.159a5.075 5.075 0 0 1-.664.253l-.699.226-.709.178c-2.596.552-5.539.371-7.27.352.145.024.289.055.436.073l.439.046c.299.021.602.03.902.046.604.014 1.213.019 1.824-.015a20.192 20.192 0 0 0 3.668-.501c-.287.073-.52.099-.691.128l-.348.057c-.121.021-.031.01.232-.029l.518-.079.736-.167c.281-.053.58-.166.914-.266l.252-.08c.086-.027.162-.064.246-.097.168-.06.328-.155.498-.239.056-.047.182-.131.341-.228z"/><path d="m28.027 25.091-.762-.398c-.266-.114-.533-.22-.803-.331-.135-.054-.27-.112-.406-.163l-.416-.135c-.277-.089-.555-.188-.834-.272.414.228.764.449 1.236.661.316.152.643.291.975.419.168.058.328.146.492.219l.494.223c.66.291 1.27.649 1.744 1.12l.248.255c.078.089.15.185.227.274l.111.136c.035.047.066.098.1.146l.197.29.172.306.086.151.076.164.15.328.191.378c.25.489.496.943.709 1.393.209.445.395.887.488 1.283.08.391.102.765.037 1.128a3.6 3.6 0 0 1-.393 1.101 5.217 5.217 0 0 1-1.742 1.822c-.15.073-.461.243-.684.367.471-.15.951-.416 1.379-.76a5.06 5.06 0 0 0 1.088-1.211c.287-.452.484-.939.555-1.428.01-.122.021-.243.027-.367-.014-.125-.006-.253-.027-.379l-.031-.191c-.008-.064-.016-.129-.039-.195-.043-.133-.064-.265-.121-.403-.191-.551-.482-1.123-.791-1.707l-.234-.445-.24-.471-.201-.422c-.066-.143-.15-.265-.225-.401a6.188 6.188 0 0 0-1.195-1.426c-.472-.431-1.036-.765-1.638-1.059zM23.391 36.479c-.371.012-.74-.02-1.107-.036l-.135-.008-.117-.015-.23-.03c-.154-.019-.307-.065-.457-.098.131.056.273.124.43.168l.236.064.123.031.143.023c.389.058.785.119 1.143.133.25.004.502.024.752.017l.75-.011c.494-.033.99-.047 1.473-.112-.486.016-.984-.019-1.482-.028-.25-.018-.5-.033-.754-.043-.255-.011-.511-.042-.768-.055z"/><path d="m29.723 35.954-.111.038-.145.037-.289.074c-.438.129-.902.201-1.359.306-.471.064-.939.158-1.426.197 1.031-.01 2.061-.076 3.059-.333-.02-.055.006-.11.061-.164a.718.718 0 0 1 .105-.079.858.858 0 0 1 .105-.076z"/></g><g fill="#010202"><path d="M15.698 14.441h3.127a.373.373 0 0 0 .373-.374V9.004a.372.372 0 0 0-.373-.373h-3.127a.374.374 0 0 0-.375.373v5.063c0 .207.168.374.375.374z"/><path d="M36.366 10.619v4.988a.692.692 0 0 1-.692.694h-5.801a.695.695 0 0 1-.696-.694v-4.988h-8.324v4.988a.692.692 0 0 1-.692.694H14.36a.695.695 0 0 1-.696-.694v-4.988H8.858v30.75h32.284v-30.75h-4.776zm2.776 28.75H10.859v-17.88h28.283v17.88z"/><path d="M31.178 14.441h3.127a.373.373 0 0 0 .373-.374V9.004a.372.372 0 0 0-.373-.373h-3.127a.374.374 0 0 0-.375.373v5.063c0 .207.168.374.375.374z"/></g></svg>