<svg xmlns="http://www.w3.org/2000/svg" width="50" height="50" xml:space="preserve"><circle fill="#FFF" cx="25" cy="25" r="25"/><path fill="#028B38" d="m24.568 37.158-6.808-8.666 2.359-1.853 4.508 5.736 7.299-8.843 2.314 1.91z"/><g fill="#010202"><path d="M15.697 14.441h3.127a.373.373 0 0 0 .373-.374V9.004a.372.372 0 0 0-.373-.373h-3.127a.374.374 0 0 0-.375.373v5.063c0 .207.168.374.375.374z"/><path d="M36.365 10.619v4.988a.692.692 0 0 1-.691.694h-5.801a.694.694 0 0 1-.695-.694v-4.988h-8.324v4.988a.692.692 0 0 1-.691.694h-5.801a.695.695 0 0 1-.696-.694v-4.988H8.857v30.75h32.285v-30.75h-4.777zm2.778 28.75H10.859v-17.88h28.283v17.88z"/><path d="M31.178 14.441h3.127a.373.373 0 0 0 .373-.374V9.004a.372.372 0 0 0-.373-.373h-3.127a.374.374 0 0 0-.375.373v5.063c0 .207.168.374.375.374z"/></g></svg>