<svg xmlns="http://www.w3.org/2000/svg" width="50" height="50" xml:space="preserve"><circle fill="#FFF" cx="25" cy="25" r="25"/><g fill="#254193"><path d="M25.001 38.068c-4.246 0-7.699-3.454-7.699-7.699s3.453-7.699 7.699-7.699c4.244 0 7.697 3.454 7.697 7.699s-3.453 7.699-7.697 7.699zm0-13.398a5.705 5.705 0 0 0-5.699 5.699 5.706 5.706 0 0 0 5.699 5.699 5.705 5.705 0 0 0 5.697-5.699 5.705 5.705 0 0 0-5.697-5.699z"/><path d="M29.261 31.119h-5.01v-4.136a.75.75 0 0 1 1.5 0v2.636h3.51a.75.75 0 0 1 0 1.5z"/></g><g fill="#010202"><path d="M15.698 14.441h3.127a.373.373 0 0 0 .373-.374V9.004a.372.372 0 0 0-.373-.373h-3.127a.374.374 0 0 0-.375.373v5.063c0 .207.168.374.375.374z"/><path d="M36.366 10.619v4.988a.693.693 0 0 1-.692.694h-5.801a.695.695 0 0 1-.696-.694v-4.988h-8.323v4.988a.692.692 0 0 1-.692.694H14.36a.695.695 0 0 1-.695-.694v-4.988H8.858v30.75h32.283v-30.75h-4.775zm2.776 28.75H10.858v-17.88h28.283v17.88z"/><path d="M31.179 14.441h3.127a.373.373 0 0 0 .373-.374V9.004a.372.372 0 0 0-.373-.373h-3.127a.374.374 0 0 0-.375.373v5.063c0 .207.168.374.375.374z"/></g></svg>