<svg width="118" height="118" fill="none" xmlns="http://www.w3.org/2000/svg"><path d="M86.5 74.5c0 21.815-17.46 39.5-39 39.5s-39-17.685-39-39.5S25.96 35 47.5 35s39 17.685 39 39.5Z" fill="#D3883E"/><path fill-rule="evenodd" clip-rule="evenodd" d="M47.5 103c15.382 0 28-12.677 28-28.5S62.882 46 47.5 46s-28 12.677-28 28.5 12.618 28.5 28 28.5Zm0 6c18.778 0 34-15.446 34-34.5 0-19.054-15.222-34.5-34-34.5s-34 15.446-34 34.5c0 19.054 15.222 34.5 34 34.5Z" fill="#EFA262"/><path d="M34.214 65.893c.288-1.962.837-3.672 1.647-5.13.828-1.458 1.845-2.673 3.05-3.645a12.338 12.338 0 0 1 4.186-2.16c1.566-.486 3.249-.729 5.049-.729 1.944 0 3.672.279 5.184.837 1.512.54 2.79 1.278 3.834 2.214a9.367 9.367 0 0 1 2.376 3.267c.54 1.224.81 2.52.81 3.888 0 1.242-.126 2.34-.378 3.294-.252.936-.63 1.755-1.134 2.457a6.836 6.836 0 0 1-1.836 1.755c-.72.468-1.548.864-2.484 1.188 4.356 1.53 6.534 4.5 6.534 8.91 0 2.088-.378 3.906-1.134 5.454-.756 1.548-1.773 2.835-3.051 3.861-1.26 1.026-2.727 1.8-4.401 2.322a18.07 18.07 0 0 1-5.238.756c-1.872 0-3.537-.198-4.995-.594-1.458-.414-2.754-1.044-3.888-1.89-1.134-.864-2.133-1.962-2.997-3.294-.846-1.332-1.584-2.916-2.214-4.752l3.726-1.512c.972-.378 1.872-.477 2.7-.297.828.18 1.422.594 1.782 1.242.81 1.494 1.665 2.583 2.565 3.267.918.666 1.989.999 3.213.999.936 0 1.746-.153 2.43-.459.702-.324 1.278-.729 1.728-1.215a5.078 5.078 0 0 0 1.053-1.701c.234-.63.35-1.269.35-1.917 0-.846-.062-1.602-.188-2.268-.108-.684-.432-1.269-.972-1.755s-1.36-.855-2.457-1.107c-1.08-.27-2.592-.405-4.536-.405v-5.778c1.638 0 2.96-.126 3.969-.378 1.008-.252 1.782-.594 2.322-1.026.558-.45.927-.99 1.107-1.62.18-.63.27-1.323.27-2.079 0-1.548-.378-2.736-1.134-3.564-.738-.846-1.872-1.269-3.402-1.269-1.242 0-2.295.333-3.16.999-.845.648-1.43 1.458-1.754 2.43-.378.99-.873 1.647-1.485 1.971-.612.324-1.485.396-2.62.216l-4.427-.783Z" fill="#000"/><path d="M112.458 2.035a7.698 7.698 0 0 0-10.878.45c-1.649 1.79-17.075 20.213-29.392 36.193a43.168 43.168 0 0 0-24.024-7.777c-23.933-.416-43.742 18.717-44.158 42.65a43.85 43.85 0 0 0 .207 5.05c2.097.168 4.157.472 6.165.91a37.482 37.482 0 0 1-.356-5.855C10.38 53.04 27.444 36.56 48.06 36.916c20.616.358 37.096 17.423 36.738 38.04-.238 13.731-7.89 25.627-19.065 31.935a33.989 33.989 0 0 0-3.689 8.283c16.494-5.926 28.448-21.58 28.77-40.115.201-11.537-4.143-22.115-11.376-30.025 14.867-13.567 31.828-30.338 33.469-32.121a7.698 7.698 0 0 0-.449-10.878Zm-3.478 8.725c-1.631 1.774-4.062 2.193-5.426.938-1.363-1.256-1.146-3.711.487-5.484 1.633-1.774 4.061-2.193 5.426-.937 1.362 1.256 1.145 3.71-.487 5.483Zm-93.305 83.3a33.94 33.94 0 0 0-8.232-2.822c6.506 15.294 21.552 26.164 39.214 26.472.827.013 1.648.003 2.465-.029a46.105 46.105 0 0 1 1.38-6.108 37.352 37.352 0 0 1-3.74.121c-13.139-.228-24.596-7.242-31.087-17.634Z" fill="#1D1D1B"/><path d="M44.239 37.044c1.27-.107 2.546-.15 3.821-.127 13.137.228 24.595 7.241 31.087 17.633a33.919 33.919 0 0 0 8.232 2.822 43.562 43.562 0 0 0-7.945-12.333c14.869-13.568 31.832-30.343 33.473-32.126a7.698 7.698 0 0 0-.449-10.878 7.698 7.698 0 0 0-10.878.45C99.931 4.275 84.504 22.7 72.186 38.68a43.151 43.151 0 0 0-24.022-7.78c-.89-.015-1.78-.003-2.67.036 0 0-.28 2.188-.493 3.206-.213 1.019-.762 2.901-.762 2.901ZM32.652 33.48c-16.43 5.96-28.325 21.583-28.645 40.072-.416 23.933 18.717 43.743 42.65 44.159 23.933.416 43.741-18.718 44.158-42.65.03-1.706-.044-3.39-.207-5.05a46.349 46.349 0 0 1-6.166-.913c.272 1.94.39 3.898.357 5.857-.358 20.616-17.422 37.096-38.038 36.738-20.616-.358-37.097-17.421-36.739-38.038.24-13.772 7.934-25.7 19.161-31.993.445-.25 1.65-2.692 2.35-4.246.701-1.552 1.119-3.936 1.119-3.936Zm76.328-22.72c-1.631 1.774-4.062 2.194-5.426.939-1.363-1.256-1.146-3.711.487-5.484 1.633-1.774 4.061-2.193 5.426-.937 1.363 1.256 1.144 3.71-.487 5.483Z" fill="#1D1D1B"/></svg>