<svg width="118" height="118" fill="none" xmlns="http://www.w3.org/2000/svg"><path d="M86.5 74.5c0 21.815-17.46 39.5-39 39.5s-39-17.685-39-39.5S25.96 35 47.5 35s39 17.685 39 39.5Z" fill="#FFB02E"/><path fill-rule="evenodd" clip-rule="evenodd" d="M47.5 103c15.382 0 28-12.677 28-28.5S62.882 46 47.5 46s-28 12.677-28 28.5 12.618 28.5 28 28.5Zm0 6c18.778 0 34-15.446 34-34.5 0-19.054-15.222-34.5-34-34.5s-34 15.446-34 34.5c0 19.054 15.222 34.5 34 34.5Z" fill="#FFD297"/><path d="M60.215 87.952V94h-22.41v-6.048h7.56V68.107a45.6 45.6 0 0 1 .108-3.078l-4.482 3.726c-.396.306-.792.495-1.188.567a3.618 3.618 0 0 1-1.08 0 2.951 2.951 0 0 1-.918-.351c-.27-.18-.468-.36-.594-.54l-2.646-3.51 12.258-10.287h6.912v33.318h6.48Z" fill="#000"/><path d="M112.458 2.035a7.698 7.698 0 0 0-10.878.45c-1.649 1.79-17.075 20.213-29.392 36.193a43.168 43.168 0 0 0-24.024-7.777c-23.933-.416-43.742 18.717-44.158 42.65a43.85 43.85 0 0 0 .207 5.05c2.097.168 4.157.472 6.165.91a37.482 37.482 0 0 1-.356-5.855C10.38 53.04 27.444 36.56 48.06 36.916c20.616.358 37.096 17.423 36.738 38.04-.238 13.731-7.89 25.627-19.065 31.935a33.989 33.989 0 0 0-3.689 8.283c16.494-5.926 28.448-21.58 28.77-40.115.201-11.537-4.143-22.115-11.376-30.025 14.868-13.567 31.828-30.338 33.469-32.121a7.698 7.698 0 0 0-.449-10.878Zm-3.478 8.725c-1.631 1.774-4.062 2.193-5.426.938-1.363-1.256-1.146-3.711.487-5.484 1.633-1.774 4.061-2.193 5.426-.937 1.362 1.256 1.145 3.71-.487 5.483Zm-93.305 83.3a33.94 33.94 0 0 0-8.232-2.822c6.506 15.294 21.552 26.164 39.214 26.472.827.013 1.648.003 2.465-.029a46.105 46.105 0 0 1 1.38-6.108 37.352 37.352 0 0 1-3.74.121c-13.139-.228-24.596-7.242-31.087-17.634Z" fill="#1D1D1B"/><path d="M44.239 37.044c1.27-.107 2.546-.15 3.821-.127 13.137.228 24.595 7.241 31.087 17.633a33.919 33.919 0 0 0 8.232 2.822 43.562 43.562 0 0 0-7.945-12.333c14.869-13.568 31.832-30.343 33.473-32.126a7.698 7.698 0 0 0-.449-10.878 7.698 7.698 0 0 0-10.878.45C99.931 4.275 84.504 22.7 72.186 38.68a43.151 43.151 0 0 0-24.022-7.78c-.89-.015-1.78-.003-2.67.036 0 0-.28 2.188-.493 3.206-.213 1.019-.762 2.901-.762 2.901ZM32.652 33.48c-16.43 5.96-28.325 21.583-28.645 40.072-.416 23.933 18.717 43.743 42.65 44.159 23.933.416 43.741-18.718 44.158-42.65.03-1.706-.044-3.39-.207-5.05a46.349 46.349 0 0 1-6.166-.913c.272 1.94.39 3.898.357 5.857-.358 20.616-17.422 37.096-38.038 36.738-20.616-.358-37.097-17.421-36.739-38.038.24-13.772 7.934-25.7 19.161-31.993.445-.25 1.65-2.692 2.35-4.246.701-1.552 1.119-3.936 1.119-3.936Zm76.328-22.72c-1.631 1.774-4.062 2.194-5.426.939-1.363-1.256-1.146-3.711.487-5.484 1.633-1.774 4.061-2.193 5.426-.937 1.363 1.256 1.144 3.71-.487 5.483Z" fill="#1D1D1B"/></svg>