<svg xmlns="http://www.w3.org/2000/svg" width="30" height="30" xml:space="preserve"><path fill="#1F51DB" d="m19.096.208-6.323 7.813c3.305.193 5.902 1.376 8.67 2.611L30 .208H19.096z"/><path fill="#152B96" d="m0 .208 8.552 10.421c2.765-1.236 5.373-2.415 8.677-2.608L10.904.208H0z"/><path fill="#D3883E" d="M15 7.611c-6.122 0-11.09 4.965-11.09 11.09S8.878 29.792 15 29.792c6.124 0 11.091-4.966 11.091-11.091S21.124 7.611 15 7.611z"/><path fill="#EFA262" d="M15 9.195c-5.25 0-9.506 4.258-9.506 9.506S9.75 28.208 15 28.208c5.251 0 9.506-4.259 9.506-9.507S20.251 9.195 15 9.195zm0 17.427c-4.376 0-7.922-3.545-7.922-7.921s3.546-7.922 7.922-7.922a7.922 7.922 0 1 1 0 15.843z"/><path d="M14.344 23.804c-.208 0-.409-.012-.604-.033s-.383-.049-.565-.084a4.54 4.54 0 0 1-.637-.182 2.047 2.047 0 0 1-.455-.234v-1.482c.13.105.286.197.468.279.182.084.391.158.624.229.19.051.388.094.591.123.204.031.41.045.618.045.599 0 1.083-.15 1.455-.455.373-.303.559-.701.559-1.195 0-.537-.201-.938-.604-1.202-.403-.265-1.028-.396-1.878-.396h-.963v-1.313h.963c.693 0 1.256-.141 1.688-.422.434-.281.65-.678.65-1.189 0-.442-.148-.778-.449-1.008-.299-.229-.729-.345-1.292-.345-.199 0-.396.013-.592.039a3.692 3.692 0 0 0-.591.13 4.682 4.682 0 0 0-.592.208 2.836 2.836 0 0 0-.475.261v-1.443c.286-.164.652-.295 1.099-.391a6.447 6.447 0 0 1 1.346-.143c.944 0 1.69.226 2.241.676.551.451.826 1.063.826 1.833 0 .546-.129 1.025-.383 1.437a2.307 2.307 0 0 1-1.086.916v.027c.512.164.908.45 1.189.857s.422.91.422 1.508c0 .902-.33 1.619-.988 2.152s-1.52.797-2.585.797z"/></svg>