<svg xmlns="http://www.w3.org/2000/svg" width="30" height="30" xml:space="preserve"><path fill="#1F51DB" d="m19.096.208-6.323 7.813c3.305.193 5.902 1.376 8.67 2.611L30 .208H19.096z"/><path fill="#152B96" d="m0 .208 8.552 10.421c2.765-1.236 5.373-2.415 8.677-2.608L10.904.208H0z"/><path fill="#FFB02E" d="M15 7.611c-6.122 0-11.09 4.965-11.09 11.09S8.878 29.792 15 29.792c6.124 0 11.091-4.966 11.091-11.091S21.124 7.611 15 7.611z"/><path fill="#FFD297" d="M15 9.195c-5.25 0-9.506 4.258-9.506 9.506S9.75 28.208 15 28.208c5.251 0 9.506-4.259 9.506-9.507S20.251 9.195 15 9.195zm0 17.427c-4.376 0-7.922-3.545-7.922-7.921s3.546-7.922 7.922-7.922a7.922 7.922 0 1 1 0 15.843z"/><path d="M17.809 22.322v1.339h-5.5v-1.339h2.002v-5.993h-2.119v-1.17c.183 0 .352-.011.508-.033.155-.021.303-.05.441-.084.165-.052.314-.115.449-.188.134-.073.249-.163.344-.267.13-.138.226-.277.286-.416a1.05 1.05 0 0 0 .091-.429h1.496v8.58h2.002z"/></svg>