<svg xmlns="http://www.w3.org/2000/svg" width="30" height="30" xml:space="preserve"><path fill="#1F51DB" d="m19.096.208-6.323 7.813c3.305.193 5.902 1.376 8.67 2.611L30 .208H19.096z"/><path fill="#152B96" d="m0 .208 8.552 10.421c2.765-1.236 5.373-2.415 8.677-2.608L10.904.208H0z"/><path fill="#AAA" d="M15 7.61c-6.122 0-11.09 4.966-11.09 11.091S8.878 29.792 15 29.792c6.124 0 11.091-4.966 11.091-11.091S21.124 7.61 15 7.61z"/><path fill="#C6C6C6" d="M15 9.195c-5.25 0-9.506 4.258-9.506 9.506S9.75 28.208 15 28.208c5.251 0 9.506-4.259 9.506-9.507S20.251 9.195 15 9.195zm0 17.427c-4.376 0-7.922-3.545-7.922-7.921s3.546-7.922 7.922-7.922a7.922 7.922 0 1 1 0 15.843z"/><path d="M17.932 22.4v1.338h-5.863V22.14a130.23 130.23 0 0 0 1.611-1.555c.355-.351.658-.664.91-.942.59-.642 1.015-1.204 1.281-1.69.264-.484.396-.936.396-1.352 0-.512-.148-.905-.441-1.183-.295-.277-.707-.416-1.236-.416-.407 0-.828.087-1.261.26a3.747 3.747 0 0 0-1.118.677v-1.47a4.38 4.38 0 0 1 1.203-.591 4.313 4.313 0 0 1 1.332-.215c.97 0 1.72.254 2.25.761.527.507.793 1.232.793 2.177 0 .736-.271 1.508-.813 2.314-.543.806-1.597 1.954-3.166 3.445l.04.04h4.082z"/></svg>