<svg xmlns="http://www.w3.org/2000/svg" width="701.387" height="393.492" viewBox="84.016 97.241 701.387 393.492" xml:space="preserve"><path fill="#1D1D1B" d="M558.595 101.999c-7.314-6.733-18.701-6.264-25.434 1.051-3.854 4.185-39.922 47.26-68.719 84.623-15.967-11.139-35.285-17.82-56.168-18.184-55.956-.972-102.271 43.762-103.243 99.719-.069 3.988.102 7.926.483 11.804 4.904.393 9.719 1.104 14.415 2.127a87.628 87.628 0 0 1-.833-13.687c.837-48.202 40.732-86.735 88.934-85.898 48.202.836 86.733 40.733 85.895 88.935-.557 32.106-18.445 59.918-44.574 74.668a79.424 79.424 0 0 0-8.625 19.365c38.563-13.855 66.512-50.454 67.266-93.789.469-26.974-9.688-51.706-26.598-70.2 34.76-31.72 74.414-70.932 78.252-75.101 6.732-7.314 6.262-18.702-1.051-25.433zm-8.131 20.399c-3.814 4.147-9.498 5.128-12.686 2.193-3.188-2.937-2.68-8.677 1.137-12.822 3.818-4.146 9.496-5.127 12.686-2.189 3.186 2.935 2.678 8.673-1.137 12.818zM332.312 317.156a79.365 79.365 0 0 0-19.246-6.596c15.211 35.758 50.389 61.172 91.683 61.891 1.934.032 3.854.007 5.765-.067.755-4.85 1.833-9.618 3.226-14.281-2.909.24-5.827.335-8.745.284-30.719-.534-57.505-16.932-72.683-41.231z"/><path fill="#FFD100" d="M289.37 302.12a87.934 87.934 0 0 1 8.935-.299c30.716.533 57.503 16.931 72.682 41.229a79.315 79.315 0 0 0 19.247 6.596c-4.535-10.661-10.857-20.393-18.575-28.834 34.763-31.722 74.425-70.942 78.263-75.111 6.732-7.315 6.262-18.702-1.051-25.435-7.314-6.732-18.701-6.263-25.434 1.051-3.854 4.187-39.926 47.267-68.725 84.63-15.964-11.14-35.278-17.826-56.163-18.189a102.359 102.359 0 0 0-6.244.082s-.654 5.116-1.152 7.497-1.783 6.783-1.783 6.783zm-27.091-8.336c-38.411 13.933-66.223 50.462-66.973 93.689-.972 55.957 43.761 102.271 99.716 103.244 55.958.973 102.271-43.762 103.244-99.717.069-3.988-.102-7.926-.483-11.805-4.848-.387-9.664-1.1-14.416-2.134.635 4.536.914 9.114.834 13.693-.836 48.201-40.732 86.733-88.934 85.896-48.201-.838-86.734-40.732-85.896-88.935.559-32.2 18.548-60.086 44.799-74.801 1.04-.583 3.856-6.295 5.495-9.927 1.638-3.628 2.614-9.203 2.614-9.203zm178.461-53.118c-3.816 4.146-9.498 5.128-12.688 2.192-3.186-2.936-2.678-8.677 1.139-12.821 3.816-4.146 9.494-5.127 12.684-2.19 3.187 2.935 2.677 8.674-1.135 12.819z"/><path fill="#E20613" d="M779.595 101.999c-7.314-6.733-18.701-6.264-25.434 1.051-3.771 4.096-38.404 45.45-66.877 82.238-15.238-9.702-33.242-15.462-52.59-15.799-55.955-.972-102.271 43.761-103.242 99.718-.072 4.187.115 8.317.539 12.382a107.82 107.82 0 0 1 14.566 2.941 87.588 87.588 0 0 1-1.041-15.079c.836-48.202 40.732-86.735 88.934-85.897 48.201.836 86.734 40.732 85.896 88.935-.836 48.202-40.732 86.734-88.934 85.897-28.477-.495-53.574-14.624-69.178-36.041a79.288 79.288 0 0 0-22.094-10.278c15.551 34.963 50.313 59.677 91.025 60.385 55.957.972 102.27-43.763 103.244-99.719.49-28.288-10.703-54.105-29.117-72.854 34.029-31.212 71.619-68.395 75.35-72.447 6.736-7.314 6.266-18.702-1.047-25.433zm-8.131 20.399c-3.814 4.147-9.498 5.128-12.686 2.193-3.188-2.937-2.68-8.677 1.137-12.822 3.818-4.146 9.496-5.127 12.686-2.189 3.186 2.935 2.678 8.673-1.137 12.818z"/><path fill="#00A439" d="M605.201 390.757c-.836 48.201-40.732 86.733-88.934 85.896-48.201-.838-86.734-40.732-85.896-88.935.557-32.108 18.449-59.922 44.578-74.671a79.404 79.404 0 0 0 8.623-19.363c-38.563 13.855-66.515 50.452-67.268 93.789-.971 55.957 43.762 102.271 99.717 103.244 55.959.973 102.271-43.762 103.244-99.717.072-4.188-.115-8.322-.541-12.389a108.398 108.398 0 0 1-14.561-2.905 87.164 87.164 0 0 1 1.038 15.051zm64.67-170.49c-7.316-6.732-18.703-6.263-25.436 1.051-3.854 4.187-39.93 47.271-68.729 84.636-15.963-11.141-35.273-17.832-56.158-18.195a102.56 102.56 0 0 0-5.764.066c-.752 4.828-1.828 9.6-3.227 14.281a88.627 88.627 0 0 1 8.746-.283c28.533.495 53.678 14.681 69.273 36.171a79.415 79.415 0 0 0 22 10.158 101.897 101.897 0 0 0-17.92-27.342c34.764-31.721 74.424-70.939 78.262-75.109 6.734-7.316 6.265-18.703-1.047-25.434zm-8.131 20.399c-3.816 4.146-9.498 5.128-12.688 2.192-3.186-2.936-2.678-8.677 1.139-12.821 3.816-4.146 9.494-5.127 12.684-2.19 3.187 2.935 2.677 8.674-1.135 12.819z"/><path fill="#0084C7" d="M337.596 101.999c-7.314-6.733-18.702-6.264-25.434 1.051-3.854 4.185-39.922 47.26-68.72 84.623-15.965-11.139-35.284-17.82-56.168-18.184-55.956-.972-102.271 43.762-103.243 99.719-.972 55.957 43.761 102.271 99.716 103.244 1.934.032 3.855.007 5.766-.067.755-4.85 1.833-9.618 3.225-14.281-2.909.24-5.828.335-8.746.284-48.201-.838-86.734-40.733-85.896-88.935.837-48.202 40.732-86.735 88.933-85.898 48.201.836 86.734 40.733 85.896 88.935-.557 32.106-18.447 59.919-44.575 74.669a79.4 79.4 0 0 0-8.625 19.364c38.561-13.855 66.512-50.454 67.266-93.789.468-26.974-9.688-51.706-26.598-70.199 34.76-31.721 74.415-70.933 78.252-75.102 6.733-7.315 6.263-18.703-1.049-25.434zm-8.131 20.399c-3.815 4.147-9.498 5.128-12.686 2.193-3.188-2.937-2.68-8.677 1.137-12.822 3.817-4.146 9.495-5.127 12.684-2.189 3.187 2.935 2.678 8.673-1.135 12.818z"/></svg>